# xmcd
#
# Track frame offsets:
#	150
#	20701
#	40570
#	55195
#	72223
#	91808
#	110429
#	126736
#	142511
#	161439
#	176442
#	194692
#	213534
#	237117
#	253040
#
# Disc length: 3595 seconds
#
# Revision: 1
# Processed by: cddbd v1.5.1PL2 Copyright (c) Steve Scherf et al.
# Submitted via: audiograbber 1.83.01
#
DISCID=ce0e090f
DTITLE=Various Artist - CB Hot Country Hits - Volume 229
DYEAR=2002
DGENRE=Country
TTITLE0=Tim McGraw - The Cowboy In Me
TTITLE1=Kenny Chesney - Young
TTITLE2=Jessica Andrews - Karma
TTITLE3=Tommy Shane Steiner - What If She's An Angel
TTITLE4=Kevin Denney - That's Just Jessie
TTITLE5=Mindy McCready - Maybe/Maybe Not
TTITLE6=Ty Herndon - Heather's Wall
TTITLE7=Brad Paisley - I'm Gonna Miss Her
TTITLE8=Kellie Coffey - When You Lie Next To Me
TTITLE9=Chely Wright - Jezebel
TTITLE10=Alan Jackson and George Strait - Designated Drinker
TTITLE11=Travis Tritt - Modern Day Bonnie and Clyde
TTITLE12=Jolie and The Wanted - Party On The Patio
TTITLE13=Toby Keith - My List
TTITLE14=Trick Pony - Just What I Do
EXTD=
EXTT0=
EXTT1=
EXTT2=
EXTT3=
EXTT4=
EXTT5=
EXTT6=
EXTT7=
EXTT8=
EXTT9=
EXTT10=
EXTT11=
EXTT12=
EXTT13=
EXTT14=
PLAYORDER=
